<?xml version="1.0" encoding="UTF-8"?>
<!--Generator: Apple Native CoreSVG 232.5-->
<!DOCTYPE svg
PUBLIC "-//W3C//DTD SVG 1.1//EN"
       "http://www.w3.org/Graphics/SVG/1.1/DTD/svg11.dtd">
<svg version="1.1" xmlns="http://www.w3.org/2000/svg" xmlns:xlink="http://www.w3.org/1999/xlink" width="521.527" height="523.241">
 <g>
  <rect height="523.241" opacity="0" width="521.527" x="0" y="0"/>
  <path d="M0 261.496C0 340.181 39.1841 416.907 97.1307 462.181C112.185 474.894 129.91 473.178 139.658 460.543C150.121 447.192 145.997 430.343 133.203 418.788C86.6308 381.413 57.4572 325.67 57.2867 261.496C56.9457 148.663 147.891 58.0585 260.724 58.0585C373.556 58.0585 464.582 148.663 464.241 261.496C463.991 325.67 434.817 381.413 388.245 418.788C375.451 430.343 371.406 447.192 381.79 460.543C391.538 473.178 409.263 474.894 424.397 462.181C482.343 416.907 521.527 340.181 521.527 261.496C521.527 118.498 403.722 0.771807 260.724 0.771807C117.976 0.771807 0 118.498 0 261.496ZM464.115 479.51L376.688 393.035C363.155 379.558 349.406 386.489 346.712 403.296L330.71 503.258C328.596 516.702 336.687 524.884 350.551 522.963L454.41 508.668C472.376 506.168 477.796 493.317 464.115 479.51Z" fill="#32d74b"/>
  <path d="M182.926 361.849C195.662 361.849 204.15 354.964 208.218 339.569L221.459 299.913L300.068 299.913L313.31 339.569C317.378 354.964 325.695 361.849 338.601 361.849C353.735 361.849 363.302 352.532 363.302 338.398C363.302 333.762 362.143 328.672 359.757 321.185L300.16 156.205C293.423 136.13 280.266 126.359 260.315 126.359C240.853 126.359 228.184 136.05 221.197 156.205L161.77 321.185C159.213 328.672 158.225 333.762 158.225 338.228C158.225 352.703 167.542 361.849 182.926 361.849ZM232.175 261.963L259.303 176.343L262.053 176.343L289.103 261.963Z" fill="#32d74b"/>
 </g>
</svg>
