<?xml version="1.0" encoding="UTF-8"?>
<!--Generator: Apple Native CoreSVG 232.5-->
<!DOCTYPE svg
PUBLIC "-//W3C//DTD SVG 1.1//EN"
       "http://www.w3.org/Graphics/SVG/1.1/DTD/svg11.dtd">
<svg version="1.1" xmlns="http://www.w3.org/2000/svg" xmlns:xlink="http://www.w3.org/1999/xlink" width="572.876" height="513.809">
 <g>
  <rect height="513.809" opacity="0" width="572.876" x="0" y="0"/>
  <path d="M0 328.335C43.431 399.061 156.679 508.059 309.278 508.059C406.549 508.059 433.253 462.719 489.673 462.719C536.604 462.719 555.24 494.252 562.478 506.729C564.637 510.559 568.046 513.138 570.296 505.729C571.626 500.241 572.876 493.002 572.876 484.184C572.876 459.389 565.308 412.208 524.036 360.289C533.024 334.823 534.104 306.699 534.104 290.063C534.104 214.928 491.752 84.3734 351.63 0C380.754 41.272 419.947 103.68 419.947 190.633C419.947 222.246 411.288 256.859 404.22 274.165C328.085 229.984 182.474 108.668 124.225 46.681C170.906 118.486 226.484 183.474 287.892 251.62C205.348 199.451 128.225 140.952 56.499 76.7144C125.304 176.565 212.257 274.836 326.914 367.527C293.972 385.663 260.268 400.14 202.61 400.14C132.463 400.14 46.7605 366.027 0 328.335Z" fill="#ff9f0a"/>
 </g>
</svg>
