<?xml version="1.0" encoding="UTF-8"?>
<!--Generator: Apple Native CoreSVG 232.5-->
<!DOCTYPE svg
PUBLIC "-//W3C//DTD SVG 1.1//EN"
       "http://www.w3.org/Graphics/SVG/1.1/DTD/svg11.dtd">
<svg version="1.1" xmlns="http://www.w3.org/2000/svg" xmlns:xlink="http://www.w3.org/1999/xlink" width="492.137" height="496.409">
 <g>
  <rect height="496.409" opacity="0" width="492.137" x="0" y="0"/>
  <path d="M382.139 328.958C251.897 328.958 169.293 248.501 169.293 119.122C169.293 90.1684 175.645 52.5534 184.963 32.5984C188.088 25.7354 189.383 20.6454 189.383 16.3965C189.383 7.89749 183.27 0 172.407 0C168.385 0 161.828 1.06799 155.295 3.54498C62.0795 41.022 0 138.614 0 242.649C0 389.172 110.41 494.569 256.513 494.569C362.037 494.569 454.333 431.227 488.115 346.865C491.081 339.684 492.137 332.73 492.137 328.89C492.137 318.686 484.546 311.88 476.036 311.88C471.196 311.88 466.379 313.266 459.8 316.038C441.743 322.765 411.697 328.958 382.139 328.958Z" fill="#5e5ce6"/>
 </g>
</svg>
