<?xml version="1.0" encoding="UTF-8"?>
<!--Generator: Apple Native CoreSVG 232.5-->
<!DOCTYPE svg
PUBLIC "-//W3C//DTD SVG 1.1//EN"
       "http://www.w3.org/Graphics/SVG/1.1/DTD/svg11.dtd">
<svg version="1.1" xmlns="http://www.w3.org/2000/svg" xmlns:xlink="http://www.w3.org/1999/xlink" width="509.616" height="510.037">
 <g>
  <rect height="510.037" opacity="0" width="509.616" x="0" y="0"/>
  <path d="M254.893 59.3138C271.131 59.3138 284.55 46.0649 284.55 29.6569C284.55 13.1695 271.131 0 254.893 0C238.406 0 225.236 13.1695 225.236 29.6569C225.236 46.0649 238.406 59.3138 254.893 59.3138ZM414.267 125.177C430.504 125.177 443.753 112.007 443.753 95.5199C443.753 79.1119 430.504 65.863 414.267 65.863C397.779 65.863 384.61 79.1119 384.61 95.5199C384.61 112.007 397.779 125.177 414.267 125.177ZM480.13 284.55C496.367 284.55 509.616 271.301 509.616 254.893C509.616 238.406 496.367 225.236 480.13 225.236C463.642 225.236 450.473 238.406 450.473 254.893C450.473 271.301 463.642 284.55 480.13 284.55ZM414.267 443.924C430.504 443.924 443.753 430.675 443.753 414.267C443.753 397.779 430.504 384.61 414.267 384.61C397.779 384.61 384.61 397.779 384.61 414.267C384.61 430.675 397.779 443.924 414.267 443.924ZM254.893 509.787C271.131 509.787 284.55 496.538 284.55 480.13C284.55 463.642 271.131 450.473 254.893 450.473C238.406 450.473 225.236 463.642 225.236 480.13C225.236 496.538 238.406 509.787 254.893 509.787ZM95.5199 443.924C112.007 443.924 125.177 430.675 125.177 414.267C125.177 397.779 112.007 384.61 95.5199 384.61C79.1119 384.61 65.863 397.779 65.863 414.267C65.863 430.675 79.1119 443.924 95.5199 443.924ZM29.6569 284.55C46.0649 284.55 59.3138 271.301 59.3138 254.893C59.3138 238.406 46.0649 225.236 29.6569 225.236C13.1695 225.236 0 238.406 0 254.893C0 271.301 13.1695 284.55 29.6569 284.55ZM95.5199 125.177C112.007 125.177 125.177 112.007 125.177 95.5199C125.177 79.1119 112.007 65.863 95.5199 65.863C79.1119 65.863 65.863 79.1119 65.863 95.5199C65.863 112.007 79.1119 125.177 95.5199 125.177Z" fill="#ff9f0a"/>
  <path d="M254.893 387.947C327.653 387.947 387.947 327.573 387.947 254.893C387.947 181.963 327.653 121.669 254.893 121.669C181.963 121.669 121.669 181.963 121.669 254.893C121.669 327.812 181.804 387.947 254.893 387.947ZM254.893 335.637C210.663 335.637 173.979 298.953 173.979 254.893C173.979 210.834 210.663 173.979 254.893 173.979C298.953 173.979 335.637 210.663 335.637 254.893C335.637 298.953 298.953 335.637 254.893 335.637Z" fill="#ff9f0a"/>
 </g>
</svg>
